{
    "asset" : {
        "generator" : "Khronos glTF Blender I/O v1.4.40",
        "version" : "2.0"
    },
    "scene" : 0,
    "scenes" : [
        {
            "name" : "Scene",
            "nodes" : [
                0
            ]
        }
    ],
    "nodes" : [
        {
            "mesh" : 0,
            "name" : "AF s",
            "rotation" : [
                0.016669023782014847,
                -0.706910252571106,
                0.7069103717803955,
                0.016669021919369698
            ],
            "scale" : [
                1.273424744606018,
                1.273424744606018,
                1.273424744606018
            ]
        }
    ],
    "materials" : [
        {
            "doubleSided" : true,
            "name" : "material_0",
            "pbrMetallicRoughness" : {
                "baseColorFactor" : [
                    0,
                    0,
                    0,
                    1
                ],
                "metallicFactor" : 0
            }
        }
    ],
    "meshes" : [
        {
            "name" : "AF s",
            "primitives" : [
                {
                    "attributes" : {
                        "POSITION" : 0,
                        "NORMAL" : 1,
                        "TEXCOORD_0" : 2
                    },
                    "indices" : 3,
                    "material" : 0
                }
            ]
        }
    ],
    "accessors" : [
        {
            "bufferView" : 0,
            "componentType" : 5126,
            "count" : 50236,
            "max" : [
                2.3517916202545166,
                9.611977702661534e-07,
                2.9387974739074707
            ],
            "min" : [
                -1.761093258857727,
                -1.038802224684332e-06,
                -3.4893717765808105
            ],
            "type" : "VEC3"
        },
        {
            "bufferView" : 1,
            "componentType" : 5126,
            "count" : 50236,
            "type" : "VEC3"
        },
        {
            "bufferView" : 2,
            "componentType" : 5126,
            "count" : 50236,
            "type" : "VEC2"
        },
        {
            "bufferView" : 3,
            "componentType" : 5123,
            "count" : 63219,
            "type" : "SCALAR"
        }
    ],
    "bufferViews" : [
        {
            "buffer" : 0,
            "byteLength" : 602832,
            "byteOffset" : 0
        },
        {
            "buffer" : 0,
            "byteLength" : 602832,
            "byteOffset" : 602832
        },
        {
            "buffer" : 0,
            "byteLength" : 401888,
            "byteOffset" : 1205664
        },
        {
            "buffer" : 0,
            "byteLength" : 126438,
            "byteOffset" : 1607552
        }
    ],
    "buffers" : [
        {
            "byteLength" : 1733992,
            "uri" : "data:application/octet-stream;base64,"
        }
    ]
}
